<svg xmlns="http://www.w3.org/2000/svg" width="408.074" height="54" viewBox="0 0 408.074 54"><g transform="translate(-729 -482)"><g transform="translate(1087.784 484.317)"><g transform="translate(1 1)"><g transform="translate(34.388 4.743)"><g transform="translate(0 4.619)"><path d="M22.6,10.981a.816.816,0,0,0,1.14,0L26.5,8.271a.781.781,0,0,0,0-1.118.816.816,0,0,0-1.138,0L22.6,9.863A.78.78,0,0,0,22.6,10.981Z" transform="translate(-22.363 -6.922)" fill="#46cb18"/></g><g transform="translate(2.634)"><path d="M27.219,10.324a3.163,3.163,0,1,1,3.219-3.162A3.193,3.193,0,0,1,27.219,10.324Zm0-4.743a1.581,1.581,0,1,0,1.61,1.581A1.6,1.6,0,0,0,27.219,5.581Z" transform="translate(-24 -4)" fill="#46cb18"/></g></g><g transform="translate(38.632 20.553)"><g transform="translate(3.219)"><path d="M30.219,14A3.163,3.163,0,1,1,27,17.162,3.193,3.193,0,0,1,30.219,14Zm0,1.581a1.581,1.581,0,1,0,1.61,1.581A1.6,1.6,0,0,0,30.219,15.581Z" transform="translate(-27 -14)" fill="#46cb18"/></g><g transform="translate(0 2.372)"><path d="M25,16.291a.8.8,0,0,0,.8.791h2.415a.791.791,0,1,0,0-1.581H25.8A.8.8,0,0,0,25,16.291Z" transform="translate(-25 -15.5)" fill="#46cb18"/></g></g><g transform="translate(0 20.553)"><path d="M7.439,17.162a3.193,3.193,0,0,1-3.219,3.162,3.163,3.163,0,1,1,0-6.324A3.193,3.193,0,0,1,7.439,17.162Zm-4.829,0a1.61,1.61,0,1,0,1.61-1.581A1.6,1.6,0,0,0,2.61,17.162Z" transform="translate(-1 -14)" fill="#46cb18"/><g transform="translate(5.634 2.372)"><path d="M7.719,16.291a.8.8,0,0,1-.8.791H5.3a.791.791,0,1,1,0-1.581h1.61A.8.8,0,0,1,7.719,16.291Z" transform="translate(-4.5 -15.5)" fill="#46cb18"/></g></g><g transform="translate(34.447 33.835)"><path d="M22.635,22.632a.816.816,0,0,1,1.138,0l2.761,2.71a.781.781,0,0,1,0,1.118.816.816,0,0,1-1.138,0l-2.761-2.711A.779.779,0,0,1,22.635,22.632Z" transform="translate(-22.4 -22.401)" fill="#46cb18"/><g transform="translate(2.576 2.528)"><path d="M27.219,30.324a3.163,3.163,0,1,1,3.219-3.162A3.193,3.193,0,0,1,27.219,30.324Zm0-4.743a1.581,1.581,0,1,0,1.61,1.581A1.6,1.6,0,0,0,27.219,25.581Z" transform="translate(-24 -24)" fill="#46cb18"/></g></g><g transform="translate(4.829 33.776)"><g transform="translate(4.701)"><path d="M11.056,22.6a.783.783,0,0,1,0,1.118l-2.762,2.71a.816.816,0,0,1-1.138,0,.781.781,0,0,1,0-1.118L9.918,22.6A.811.811,0,0,1,11.056,22.6Z" transform="translate(-6.921 -22.364)" fill="#46cb18"/></g><g transform="translate(0 2.587)"><path d="M7.219,30.324a3.163,3.163,0,1,1,3.219-3.162A3.193,3.193,0,0,1,7.219,30.324Zm0-4.743a1.581,1.581,0,1,0,1.61,1.581A1.6,1.6,0,0,0,7.219,25.581Z" transform="translate(-4 -24)" fill="#46cb18"/></g></g><g transform="translate(4.829 4.743)"><g transform="translate(4.701 4.619)"><path d="M11.055,10.981a.813.813,0,0,1-1.138,0L7.156,8.271a.781.781,0,0,1,0-1.118.816.816,0,0,1,1.138,0l2.761,2.711A.776.776,0,0,1,11.055,10.981Z" transform="translate(-6.921 -6.922)" fill="#46cb18"/></g><path d="M7.219,10.324a3.163,3.163,0,1,1,3.219-3.162A3.193,3.193,0,0,1,7.219,10.324Zm0-4.743a1.581,1.581,0,1,0,1.61,1.581A1.6,1.6,0,0,0,7.219,5.581Z" transform="translate(-4 -4)" fill="#46cb18"/></g><g transform="translate(20.926 37.944)"><g transform="translate(0 3.162)"><path d="M17.219,27A3.163,3.163,0,1,1,14,30.162,3.194,3.194,0,0,1,17.219,27Zm0,4.743a1.581,1.581,0,1,0-1.61-1.581A1.6,1.6,0,0,0,17.219,31.743Z" transform="translate(-14 -27)" fill="#46cb18"/></g><g transform="translate(2.415)"><path d="M16.3,25a.8.8,0,0,1,.8.791v2.372a.8.8,0,0,1-1.61,0V25.791A.8.8,0,0,1,16.3,25Z" transform="translate(-15.5 -25)" fill="#46cb18"/></g></g><g transform="translate(20.926)"><path d="M17.219,7.324A3.193,3.193,0,0,1,14,4.162a3.22,3.22,0,0,1,6.439,0A3.193,3.193,0,0,1,17.219,7.324Zm0-4.743a1.581,1.581,0,1,0,1.61,1.581A1.6,1.6,0,0,0,17.219,2.581Z" transform="translate(-14 -1)" fill="#46cb18"/><g transform="translate(2.415 5.534)"><path d="M16.3,8.453a.8.8,0,0,1-.8-.791V5.291a.8.8,0,0,1,1.61,0V7.662A.8.8,0,0,1,16.3,8.453Z" transform="translate(-15.5 -4.5)" fill="#46cb18"/></g></g><g transform="translate(11.268 11.067)"><path d="M20.877,33.3A12.779,12.779,0,0,1,8,20.648a12.88,12.88,0,0,1,25.755,0A12.779,12.779,0,0,1,20.877,33.3Zm0-23.715A11.183,11.183,0,0,0,9.61,20.648a11.27,11.27,0,0,0,22.536,0A11.183,11.183,0,0,0,20.877,9.581Z" transform="translate(-8 -8)" fill="#46cb18"/><g transform="translate(3.675 18.189)"><path d="M11.088,23.168a.809.809,0,0,1-.723-.441.785.785,0,0,1,.369-1.059,22.214,22.214,0,0,1,17.739-.6.785.785,0,0,1,.443,1.029.811.811,0,0,1-1.05.433,20.584,20.584,0,0,0-16.42.56A.808.808,0,0,1,11.088,23.168Z" transform="translate(-10.283 -19.505)" fill="#46cb18"/></g><g transform="translate(6.378 4.138)"><path d="M19.267,13.594a22.094,22.094,0,0,1-6.749-1.05.788.788,0,0,1-.515-1,.808.808,0,0,1,1.016-.506,20.617,20.617,0,0,0,13.547-.368.807.807,0,0,1,1.041.449.785.785,0,0,1-.457,1.023A21.968,21.968,0,0,1,19.267,13.594Z" transform="translate(-11.962 -10.617)" fill="#46cb18"/></g><g transform="translate(5.634 0.03)"><path d="M18.742,33.255a.805.805,0,0,1-.447-.134,14.866,14.866,0,0,1,0-24.967.817.817,0,0,1,.9,0,14.863,14.863,0,0,1,0,24.967A.805.805,0,0,1,18.742,33.255Zm0-23.483a13.3,13.3,0,0,0,0,21.73,13.291,13.291,0,0,0,0-21.73Z" transform="translate(-11.5 -8.019)" fill="#46cb18"/></g><g transform="translate(3.253 11.922)"><path d="M31.047,17.122H10.826a.791.791,0,1,1,0-1.581H31.047a.791.791,0,1,1,0,1.581Z" transform="translate(-10.021 -15.541)" fill="#46cb18"/></g></g><g transform="translate(2.674 2.626)"><g transform="translate(13.951 0)"><ellipse cx="0.805" cy="0.791" rx="0.805" ry="0.791" transform="translate(13.431)" fill="#46cb18"/><ellipse cx="0.805" cy="0.791" rx="0.805" ry="0.791" transform="translate(0 40.597)" fill="#46cb18"/></g><g transform="translate(10.801 1.281)"><ellipse cx="0.805" cy="0.791" rx="0.805" ry="0.791" transform="translate(19.731)" fill="#46cb18"/><ellipse cx="0.805" cy="0.791" rx="0.805" ry="0.791" transform="translate(0 38.036)" fill="#46cb18"/></g><g transform="translate(1.304 10.609)"><ellipse cx="0.805" cy="0.791" rx="0.805" ry="0.791" transform="translate(38.726)" fill="#46cb18"/><ellipse cx="0.805" cy="0.791" rx="0.805" ry="0.791" transform="translate(0 19.38)" fill="#46cb18"/></g><g transform="translate(0 13.703)"><ellipse cx="0.805" cy="0.791" rx="0.805" ry="0.791" transform="translate(41.333)" fill="#46cb18"/><ellipse cx="0.805" cy="0.791" rx="0.805" ry="0.791" transform="translate(0 13.192)" fill="#46cb18"/></g><g transform="translate(0 13.703)"><ellipse cx="0.805" cy="0.791" rx="0.805" ry="0.791" transform="translate(41.333 13.192)" fill="#46cb18"/><ellipse cx="0.805" cy="0.791" rx="0.805" ry="0.791" fill="#46cb18"/></g><g transform="translate(1.304 10.609)"><ellipse cx="0.805" cy="0.791" rx="0.805" ry="0.791" transform="translate(38.726 19.38)" fill="#46cb18"/><ellipse cx="0.805" cy="0.791" rx="0.805" ry="0.791" fill="#46cb18"/></g><g transform="translate(10.801 1.281)"><ellipse cx="0.805" cy="0.791" rx="0.805" ry="0.791" transform="translate(19.731 38.036)" fill="#46cb18"/><ellipse cx="0.805" cy="0.791" rx="0.805" ry="0.791" fill="#46cb18"/></g><g transform="translate(13.951 0)"><ellipse cx="0.805" cy="0.791" rx="0.805" ry="0.791" transform="translate(13.431 40.597)" fill="#46cb18"/><ellipse cx="0.805" cy="0.791" rx="0.805" ry="0.791" fill="#46cb18"/></g></g></g></g><text transform="translate(729 521)" fill="#80066f" font-size="40" font-family="Raleway"><tspan x="0" y="0">&lt;</tspan><tspan y="0" fill="#e84e09" font-size="31" font-family="SegoePrint, Segoe Print">Developers Cosmos</tspan><tspan y="0" font-size="31">/</tspan><tspan y="0">&gt;</tspan></text></g></svg>